<svg xmlns="http://www.w3.org/2000/svg" preserveAspectRatio="none" fill="none" width="390" height="268" style=""><rect id="backgroundrect" width="100%" height="100%" x="0" y="0" fill="none" stroke="none"/>

<g class="currentLayer" style=""><title>Layer 1</title><rect fill="#261a32" stroke-dashoffset="" fill-rule="nonzero" id="svg_5" x="0" y="0" width="391" height="269" style="color: rgb(56, 40, 76);" class="selected" fill-opacity="1"/><path fill="#542c35" d="M220.09416286281458,182.5714372826227 V36.38812053305287 C220.09416286281458,36.38812053305287 187.3953171518849,29.631516826771076 149.2008671197906,54.79841699137171 C113.75421924827862,78.15473535632151 112.91394134757252,116.96985894044815 64.84334078991321,122.39456996586978 C-5.775174737052538,130.3631962315585 0.2700174942501967,182.5714372826227 0.2700174942501967,182.5714372826227 H220.09416286281458 z" class="" id="svg_2" transform="rotate(-179.76820373535156 110.11750793457033,109.06745910644533) " fill-opacity="1"/><path fill="#38284c" d="M390.23499385646693,268.2052284908899 V122.0219117413201 C390.23499385646693,122.0219117413201 357.53614814553725,115.26530803503829 319.34169811344293,140.43220819963892 C283.89505024193096,163.78852656458872 283.05477234122486,202.60365014871536 234.98417178356556,208.028361174137 C164.3656562565998,215.99698743982572 170.41084848790254,268.2052284908899 170.41084848790254,268.2052284908899 H390.23499385646693 z" id="svg_1" class="" fill-opacity="1"/><rect fill="#3f2a55" stroke-dashoffset="" fill-rule="nonzero" id="svg_3" x="0.11267299950122833" y="0.43875381350517273" width="389.6619873046875" height="35.56124496459961" style="color: rgb(63, 42, 85);" class=""/></g></svg>